<?xml version="1.0" encoding="UTF-8" standalone="no"?>
<!DOCTYPE svg PUBLIC "-//W3C//DTD SVG 1.1//EN"
 "http://www.w3.org/Graphics/SVG/1.1/DTD/svg11.dtd">
<!-- Generated by graphviz version 2.36.0 (20140111.2315)
 -->
<!-- Title: controllers_diagram Pages: 1 -->
<svg width="376pt" height="328pt"
 viewBox="0.00 0.00 376.00 328.00" xmlns="http://www.w3.org/2000/svg" xmlns:xlink="http://www.w3.org/1999/xlink">
<g id="graph0" class="graph" transform="scale(1 1) rotate(0) translate(4 324)">
<title>controllers_diagram</title>
<polygon fill="none" stroke="none" points="-4,4 -4,-324 372,-324 372,4 -4,4"/>
<!-- _diagram_info -->
<g id="node1" class="node"><title>_diagram_info</title>
<text text-anchor="start" x="8" y="-138.6" font-family="Times,serif" font-size="13.00">Controllers diagram</text>
<text text-anchor="start" x="8" y="-124.6" font-family="Times,serif" font-size="13.00">Date: Jul 25 2016 &#45; 13:19</text>
<text text-anchor="start" x="8" y="-110.6" font-family="Times,serif" font-size="13.00">Migration version: 20160714082943</text>
<text text-anchor="start" x="8" y="-96.6" font-family="Times,serif" font-size="13.00">Generated by RailRoady 1.5.1</text>
<text text-anchor="start" x="8" y="-82.6" font-family="Times,serif" font-size="13.00">http://railroady.prestonlee.com</text>
</g>
<!-- ParsexmlController -->
<g id="node2" class="node"><title>ParsexmlController</title>
<path fill="none" stroke="black" d="M192,-180.5C192,-180.5 291,-180.5 291,-180.5 297,-180.5 303,-186.5 303,-192.5 303,-192.5 303,-276.5 303,-276.5 303,-282.5 297,-288.5 291,-288.5 291,-288.5 192,-288.5 192,-288.5 186,-288.5 180,-282.5 180,-276.5 180,-276.5 180,-192.5 180,-192.5 180,-186.5 186,-180.5 192,-180.5"/>
<text text-anchor="middle" x="241.5" y="-273.3" font-family="Times,serif" font-size="14.00">ParsexmlController</text>
<polyline fill="none" stroke="black" points="180,-265.5 303,-265.5 "/>
<text text-anchor="start" x="188" y="-250.3" font-family="Times,serif" font-size="14.00">exchange_1c</text>
<text text-anchor="start" x="188" y="-235.3" font-family="Times,serif" font-size="14.00">exchange_1cpost</text>
<polyline fill="none" stroke="black" points="180,-227.5 303,-227.5 "/>
<polyline fill="none" stroke="black" points="180,-203.5 303,-203.5 "/>
<text text-anchor="start" x="188" y="-188.3" font-family="Times,serif" font-size="14.00">_layout</text>
</g>
<!-- ApplicationController -->
<g id="node3" class="node"><title>ApplicationController</title>
<path fill="none" stroke="black" d="M27,-225.5C27,-225.5 139,-225.5 139,-225.5 145,-225.5 151,-231.5 151,-237.5 151,-237.5 151,-307.5 151,-307.5 151,-313.5 145,-319.5 139,-319.5 139,-319.5 27,-319.5 27,-319.5 21,-319.5 15,-313.5 15,-307.5 15,-307.5 15,-237.5 15,-237.5 15,-231.5 21,-225.5 27,-225.5"/>
<text text-anchor="middle" x="83" y="-304.3" font-family="Times,serif" font-size="14.00">ApplicationController</text>
<polyline fill="none" stroke="black" points="15,-296.5 151,-296.5 "/>
<polyline fill="none" stroke="black" points="15,-272.5 151,-272.5 "/>
<polyline fill="none" stroke="black" points="15,-248.5 151,-248.5 "/>
<text text-anchor="start" x="23" y="-233.3" font-family="Times,serif" font-size="14.00">_layout</text>
</g>
<!-- CreateCsvController -->
<g id="node4" class="node"><title>CreateCsvController</title>
<path fill="none" stroke="black" d="M252,-0.5C252,-0.5 356,-0.5 356,-0.5 362,-0.5 368,-6.5 368,-12.5 368,-12.5 368,-96.5 368,-96.5 368,-102.5 362,-108.5 356,-108.5 356,-108.5 252,-108.5 252,-108.5 246,-108.5 240,-102.5 240,-96.5 240,-96.5 240,-12.5 240,-12.5 240,-6.5 246,-0.5 252,-0.5"/>
<text text-anchor="middle" x="304" y="-93.3" font-family="Times,serif" font-size="14.00">CreateCsvController</text>
<polyline fill="none" stroke="black" points="240,-85.5 368,-85.5 "/>
<text text-anchor="start" x="248" y="-70.3" font-family="Times,serif" font-size="14.00">csv_erp_to_site</text>
<text text-anchor="start" x="248" y="-55.3" font-family="Times,serif" font-size="14.00">csv_site_to_erp</text>
<polyline fill="none" stroke="black" points="240,-47.5 368,-47.5 "/>
<polyline fill="none" stroke="black" points="240,-23.5 368,-23.5 "/>
<text text-anchor="start" x="248" y="-8.3" font-family="Times,serif" font-size="14.00">_layout</text>
</g>
</g>
</svg>
