<?xml version="1.0" encoding="UTF-8" standalone="no"?>
<!DOCTYPE svg PUBLIC "-//W3C//DTD SVG 1.1//EN"
 "http://www.w3.org/Graphics/SVG/1.1/DTD/svg11.dtd">
<!-- Generated by graphviz version 2.36.0 (20140111.2315)
 -->
<!-- Title: models_diagram Pages: 1 -->
<svg width="2101pt" height="734pt"
 viewBox="0.00 0.00 2101.00 734.00" xmlns="http://www.w3.org/2000/svg" xmlns:xlink="http://www.w3.org/1999/xlink">
<g id="graph0" class="graph" transform="scale(1 1) rotate(0) translate(4 730)">
<title>models_diagram</title>
<polygon fill="none" stroke="none" points="-4,4 -4,-730 2097,-730 2097,4 -4,4"/>
<!-- _diagram_info -->
<g id="node1" class="node"><title>_diagram_info</title>
<text text-anchor="start" x="831" y="-711.6" font-family="Times,serif" font-size="13.00">Models diagram</text>
<text text-anchor="start" x="831" y="-697.6" font-family="Times,serif" font-size="13.00">Date: Jul 25 2016 &#45; 13:19</text>
<text text-anchor="start" x="831" y="-683.6" font-family="Times,serif" font-size="13.00">Migration version: 20160714082943</text>
<text text-anchor="start" x="831" y="-669.6" font-family="Times,serif" font-size="13.00">Generated by RailRoady 1.5.1</text>
<text text-anchor="start" x="831" y="-655.6" font-family="Times,serif" font-size="13.00">http://railroady.prestonlee.com</text>
</g>
<!-- ProductProperty -->
<g id="node2" class="node"><title>ProductProperty</title>
<ellipse fill="none" stroke="black" cx="1259" cy="-162" rx="68.3664" ry="18"/>
<text text-anchor="middle" x="1259" y="-158.3" font-family="Times,serif" font-size="14.00">ProductProperty</text>
</g>
<!-- Magento2Customer -->
<g id="node3" class="node"><title>Magento2Customer</title>
<ellipse fill="none" stroke="black" cx="1465" cy="-687" rx="81.3646" ry="18"/>
<text text-anchor="middle" x="1465" y="-683.3" font-family="Times,serif" font-size="14.00">Magento2Customer</text>
</g>
<!-- Offer -->
<g id="node4" class="node"><title>Offer</title>
<ellipse fill="none" stroke="black" cx="1205" cy="-450" rx="29.3479" ry="18"/>
<text text-anchor="middle" x="1205" y="-446.3" font-family="Times,serif" font-size="14.00">Offer</text>
</g>
<!-- PriceType -->
<g id="node15" class="node"><title>PriceType</title>
<ellipse fill="none" stroke="black" cx="1204" cy="-378" rx="46.1964" ry="18"/>
<text text-anchor="middle" x="1204" y="-374.3" font-family="Times,serif" font-size="14.00">PriceType</text>
</g>
<!-- Offer&#45;&gt;PriceType -->
<g id="edge1" class="edge"><title>Offer&#45;&gt;PriceType</title>
<path fill="none" stroke="#b6a87e" d="M1204.64,-423.64C1204.56,-418.063 1204.47,-412.132 1204.39,-406.476"/>
<ellipse fill="none" stroke="#b6a87e" cx="1204.7" cy="-427.697" rx="4" ry="4"/>
<polygon fill="#b6a87e" stroke="#b6a87e" points="1204.39,-406.103 1208.74,-396.04 1204.32,-401.104 1204.24,-396.104 1204.24,-396.104 1204.24,-396.104 1204.32,-401.104 1199.74,-396.169 1204.39,-406.103 1204.39,-406.103"/>
</g>
<!-- Document -->
<g id="node5" class="node"><title>Document</title>
<ellipse fill="none" stroke="black" cx="797" cy="-378" rx="48.1437" ry="18"/>
<text text-anchor="middle" x="797" y="-374.3" font-family="Times,serif" font-size="14.00">Document</text>
</g>
<!-- Contractor -->
<g id="node6" class="node"><title>Contractor</title>
<ellipse fill="none" stroke="black" cx="1583" cy="-306" rx="48.1437" ry="18"/>
<text text-anchor="middle" x="1583" y="-302.3" font-family="Times,serif" font-size="14.00">Contractor</text>
</g>
<!-- Document&#45;&gt;Contractor -->
<g id="edge2" class="edge"><title>Document&#45;&gt;Contractor</title>
<path fill="none" stroke="#c1f980" d="M853.479,-371.97C998.415,-359.062 1382.24,-324.879 1526.83,-312.002"/>
<polygon fill="#c1f980" stroke="#c1f980" points="853.194,-371.995 842.834,-368.4 848.214,-372.439 843.233,-372.883 843.233,-372.883 843.233,-372.883 848.214,-372.439 843.633,-377.365 853.194,-371.995 853.194,-371.995"/>
<polygon fill="#c1f980" stroke="#c1f980" points="1526.86,-311.999 1537.22,-315.595 1531.84,-311.556 1536.82,-311.112 1536.82,-311.112 1536.82,-311.112 1531.84,-311.556 1536.43,-306.63 1526.86,-311.999 1526.86,-311.999"/>
</g>
<!-- DocumentsProduct -->
<g id="node8" class="node"><title>DocumentsProduct</title>
<ellipse fill="none" stroke="black" cx="78" cy="-162" rx="78.4642" ry="18"/>
<text text-anchor="middle" x="78" y="-158.3" font-family="Times,serif" font-size="14.00">DocumentsProduct</text>
</g>
<!-- Document&#45;&gt;DocumentsProduct -->
<g id="edge3" class="edge"><title>Document&#45;&gt;DocumentsProduct</title>
<path fill="none" stroke="#4276d0" d="M741.056,-375.281C663.218,-371.602 518.564,-360.074 401,-324 289.274,-289.717 168.888,-219.923 111.772,-184.564"/>
<ellipse fill="none" stroke="#4276d0" cx="745.298" cy="-375.472" rx="4" ry="4"/>
<polygon fill="#4276d0" stroke="#4276d0" points="111.646,-184.486 105.54,-175.377 107.403,-181.841 103.16,-179.196 103.16,-179.196 103.16,-179.196 107.403,-181.841 100.779,-183.014 111.646,-184.486 111.646,-184.486"/>
</g>
<!-- Requisite -->
<g id="node12" class="node"><title>Requisite</title>
<ellipse fill="none" stroke="black" cx="567" cy="-306" rx="44.2946" ry="18"/>
<text text-anchor="middle" x="567" y="-302.3" font-family="Times,serif" font-size="14.00">Requisite</text>
</g>
<!-- Document&#45;&gt;Requisite -->
<g id="edge6" class="edge"><title>Document&#45;&gt;Requisite</title>
<path fill="none" stroke="#d2728e" d="M750.655,-363.391C714.904,-352.827 664.248,-337.72 620,-324 616.716,-322.982 613.322,-321.918 609.91,-320.842"/>
<polygon fill="#d2728e" stroke="#d2728e" points="750.735,-363.414 759.052,-370.561 755.53,-364.829 760.326,-366.245 760.326,-366.245 760.326,-366.245 755.53,-364.829 761.599,-361.929 750.735,-363.414 750.735,-363.414"/>
<polygon fill="#d2728e" stroke="#d2728e" points="609.861,-320.826 601.692,-313.511 605.096,-319.313 600.33,-317.8 600.33,-317.8 600.33,-317.8 605.096,-319.313 598.968,-322.089 609.861,-320.826 609.861,-320.826"/>
</g>
<!-- Tax -->
<g id="node28" class="node"><title>Tax</title>
<ellipse fill="none" stroke="black" cx="1056" cy="-306" rx="27" ry="18"/>
<text text-anchor="middle" x="1056" y="-302.3" font-family="Times,serif" font-size="14.00">Tax</text>
</g>
<!-- Document&#45;&gt;Tax -->
<g id="edge9" class="edge"><title>Document&#45;&gt;Tax</title>
<path fill="none" stroke="#3a89ed" d="M844.562,-364.145C895.907,-350.268 976.418,-328.509 1021.84,-316.232"/>
<polygon fill="#3a89ed" stroke="#3a89ed" points="844.314,-364.212 833.487,-362.477 839.488,-365.517 834.661,-366.821 834.661,-366.821 834.661,-366.821 839.488,-365.517 835.835,-371.166 844.314,-364.212 844.314,-364.212"/>
<polygon fill="#3a89ed" stroke="#3a89ed" points="1021.86,-316.226 1032.69,-317.961 1026.69,-314.922 1031.52,-313.617 1031.52,-313.617 1031.52,-313.617 1026.69,-314.922 1030.34,-309.273 1021.86,-316.226 1021.86,-316.226"/>
</g>
<!-- Product -->
<g id="node35" class="node"><title>Product</title>
<ellipse fill="none" stroke="black" cx="800" cy="-234" rx="38.0212" ry="18"/>
<text text-anchor="middle" x="800" y="-230.3" font-family="Times,serif" font-size="14.00">Product</text>
</g>
<!-- Document&#45;&gt;Product -->
<g id="edge4" class="edge"><title>Document&#45;&gt;Product</title>
<path fill="none" stroke="#3788c9" d="M797.577,-349.679C798.107,-324.599 798.888,-287.627 799.419,-262.493"/>
<polygon fill="#3788c9" stroke="#3788c9" points="797.573,-349.874 792.863,-359.776 797.468,-354.873 797.362,-359.871 797.362,-359.871 797.362,-359.871 797.468,-354.873 801.861,-359.967 797.573,-349.874 797.573,-349.874"/>
<polygon fill="#3788c9" stroke="#3788c9" points="799.426,-262.187 804.136,-252.284 799.531,-257.188 799.637,-252.189 799.637,-252.189 799.637,-252.189 799.531,-257.188 795.138,-252.094 799.426,-262.187 799.426,-262.187"/>
</g>
<!-- DocumentRequisite -->
<g id="node37" class="node"><title>DocumentRequisite</title>
<ellipse fill="none" stroke="black" cx="468" cy="-234" rx="81.3646" ry="18"/>
<text text-anchor="middle" x="468" y="-230.3" font-family="Times,serif" font-size="14.00">DocumentRequisite</text>
</g>
<!-- Document&#45;&gt;DocumentRequisite -->
<g id="edge5" class="edge"><title>Document&#45;&gt;DocumentRequisite</title>
<path fill="none" stroke="#f88c01" d="M742.547,-372.479C670.769,-365.576 549.435,-350.353 514,-324 493.583,-308.816 481.48,-281.924 474.855,-261.663"/>
<ellipse fill="none" stroke="#f88c01" cx="746.635" cy="-372.865" rx="4" ry="4"/>
<polygon fill="#f88c01" stroke="#f88c01" points="474.843,-261.623 476.261,-250.749 473.398,-256.836 471.953,-252.05 471.953,-252.05 471.953,-252.05 473.398,-256.836 467.645,-253.35 474.843,-261.623 474.843,-261.623"/>
</g>
<!-- Discount -->
<g id="node38" class="node"><title>Discount</title>
<ellipse fill="none" stroke="black" cx="217" cy="-162" rx="42.3701" ry="18"/>
<text text-anchor="middle" x="217" y="-158.3" font-family="Times,serif" font-size="14.00">Discount</text>
</g>
<!-- Document&#45;&gt;Discount -->
<g id="edge7" class="edge"><title>Document&#45;&gt;Discount</title>
<path fill="none" stroke="#b1b9d7" d="M741.764,-374.097C677.371,-369.282 568.597,-356.662 481,-324 387.24,-289.04 290.055,-219.635 244.141,-184.479"/>
<ellipse fill="none" stroke="#b1b9d7" cx="745.788" cy="-374.386" rx="4" ry="4"/>
<polygon fill="#b1b9d7" stroke="#b1b9d7" points="244.091,-184.441 238.927,-174.767 240.134,-181.385 236.176,-178.329 236.176,-178.329 236.176,-178.329 240.134,-181.385 233.426,-181.891 244.091,-184.441 244.091,-184.441"/>
</g>
<!-- DocumentsTaxValue -->
<g id="node42" class="node"><title>DocumentsTaxValue</title>
<ellipse fill="none" stroke="black" cx="942" cy="-234" rx="85.19" ry="18"/>
<text text-anchor="middle" x="942" y="-230.3" font-family="Times,serif" font-size="14.00">DocumentsTaxValue</text>
</g>
<!-- Document&#45;&gt;DocumentsTaxValue -->
<g id="edge8" class="edge"><title>Document&#45;&gt;DocumentsTaxValue</title>
<path fill="none" stroke="#cdb2e7" d="M834.741,-360.407C852.333,-351.401 872.706,-339.021 888,-324 906.421,-305.907 921.099,-280.291 930.475,-261.183"/>
<ellipse fill="none" stroke="#cdb2e7" cx="830.976" cy="-362.278" rx="4.00002" ry="4.00002"/>
<polygon fill="#cdb2e7" stroke="#cdb2e7" points="930.485,-261.161 938.833,-254.049 932.626,-256.642 934.766,-252.123 934.766,-252.123 934.766,-252.123 932.626,-256.642 930.699,-250.197 930.485,-261.161 930.485,-261.161"/>
</g>
<!-- Representative -->
<g id="node20" class="node"><title>Representative</title>
<ellipse fill="none" stroke="black" cx="1583" cy="-234" rx="63.0666" ry="18"/>
<text text-anchor="middle" x="1583" y="-230.3" font-family="Times,serif" font-size="14.00">Representative</text>
</g>
<!-- Contractor&#45;&gt;Representative -->
<g id="edge10" class="edge"><title>Contractor&#45;&gt;Representative</title>
<path fill="none" stroke="#086187" d="M1583,-279.64C1583,-274.063 1583,-268.132 1583,-262.476"/>
<ellipse fill="none" stroke="#086187" cx="1583" cy="-283.697" rx="4" ry="4"/>
<polygon fill="#086187" stroke="#086187" points="1583,-262.104 1587.5,-252.104 1583,-257.104 1583,-252.104 1583,-252.104 1583,-252.104 1583,-257.104 1578.5,-252.104 1583,-262.104 1583,-262.104"/>
</g>
<!-- Contact -->
<g id="node32" class="node"><title>Contact</title>
<ellipse fill="none" stroke="black" cx="1655" cy="-162" rx="38.0212" ry="18"/>
<text text-anchor="middle" x="1655" y="-158.3" font-family="Times,serif" font-size="14.00">Contact</text>
</g>
<!-- Contractor&#45;&gt;Contact -->
<g id="edge11" class="edge"><title>Contractor&#45;&gt;Contact</title>
<path fill="none" stroke="#fa7691" d="M1619.73,-287.375C1633.4,-278.762 1647.43,-266.98 1655,-252 1664.62,-232.981 1663.87,-208.62 1661.14,-190.195"/>
<ellipse fill="none" stroke="#fa7691" cx="1616.08" cy="-289.544" rx="4.00002" ry="4.00002"/>
<polygon fill="#fa7691" stroke="#fa7691" points="1661.1,-189.966 1663.79,-179.337 1660.23,-185.042 1659.36,-180.118 1659.36,-180.118 1659.36,-180.118 1660.23,-185.042 1654.93,-180.899 1661.1,-189.966 1661.1,-189.966"/>
</g>
<!-- Price -->
<g id="node7" class="node"><title>Price</title>
<ellipse fill="none" stroke="black" cx="1184" cy="-90" rx="28.3955" ry="18"/>
<text text-anchor="middle" x="1184" y="-86.3" font-family="Times,serif" font-size="14.00">Price</text>
</g>
<!-- Unit -->
<g id="node9" class="node"><title>Unit</title>
<ellipse fill="none" stroke="black" cx="852" cy="-306" rx="27" ry="18"/>
<text text-anchor="middle" x="852" y="-302.3" font-family="Times,serif" font-size="14.00">Unit</text>
</g>
<!-- Unit&#45;&gt;Product -->
<g id="edge12" class="edge"><title>Unit&#45;&gt;Product</title>
<path fill="none" stroke="#cfbb79" d="M835.475,-282.755C830.057,-275.461 824.002,-267.311 818.451,-259.837"/>
<ellipse fill="none" stroke="#cfbb79" cx="838.074" cy="-286.254" rx="4.00002" ry="4.00002"/>
<polygon fill="#cfbb79" stroke="#cfbb79" points="818.196,-259.495 815.845,-248.784 815.214,-255.481 812.233,-251.467 812.233,-251.467 812.233,-251.467 815.214,-255.481 808.62,-254.151 818.196,-259.495 818.196,-259.495"/>
</g>
<!-- Proposal -->
<g id="node10" class="node"><title>Proposal</title>
<ellipse fill="none" stroke="black" cx="680" cy="-162" rx="41.394" ry="18"/>
<text text-anchor="middle" x="680" y="-158.3" font-family="Times,serif" font-size="14.00">Proposal</text>
</g>
<!-- Proposal&#45;&gt;Price -->
<g id="edge15" class="edge"><title>Proposal&#45;&gt;Price</title>
<path fill="none" stroke="#af181b" d="M718.122,-147.354C722.431,-146.092 726.787,-144.938 731,-144 882.141,-110.343 1066.7,-97.1799 1145.44,-92.8399"/>
<ellipse fill="none" stroke="#af181b" cx="714.28" cy="-148.538" rx="4.00001" ry="4.00001"/>
<polygon fill="#af181b" stroke="#af181b" points="1145.84,-92.8183 1156.07,-96.7785 1150.84,-92.5516 1155.83,-92.2849 1155.83,-92.2849 1155.83,-92.2849 1150.84,-92.5516 1155.59,-87.7913 1145.84,-92.8183 1145.84,-92.8183"/>
</g>
<!-- Storage -->
<g id="node22" class="node"><title>Storage</title>
<ellipse fill="none" stroke="black" cx="713" cy="-90" rx="37.5442" ry="18"/>
<text text-anchor="middle" x="713" y="-86.3" font-family="Times,serif" font-size="14.00">Storage</text>
</g>
<!-- Proposal&#45;&gt;Storage -->
<g id="edge14" class="edge"><title>Proposal&#45;&gt;Storage</title>
<path fill="none" stroke="#8adf7c" d="M692.256,-135.002C695.004,-129.173 697.92,-122.987 700.671,-117.152"/>
<polygon fill="#8adf7c" stroke="#8adf7c" points="692.253,-135.01 683.918,-142.136 690.121,-139.532 687.988,-144.055 687.988,-144.055 687.988,-144.055 690.121,-139.532 692.059,-145.974 692.253,-135.01 692.253,-135.01"/>
<polygon fill="#8adf7c" stroke="#8adf7c" points="700.821,-116.834 709.156,-109.708 702.953,-112.312 705.085,-107.789 705.085,-107.789 705.085,-107.789 702.953,-112.312 701.015,-105.87 700.821,-116.834 700.821,-116.834"/>
</g>
<!-- ProposalsStorage -->
<g id="node25" class="node"><title>ProposalsStorage</title>
<ellipse fill="none" stroke="black" cx="680" cy="-18" rx="71.2405" ry="18"/>
<text text-anchor="middle" x="680" y="-14.3" font-family="Times,serif" font-size="14.00">ProposalsStorage</text>
</g>
<!-- Proposal&#45;&gt;ProposalsStorage -->
<g id="edge13" class="edge"><title>Proposal&#45;&gt;ProposalsStorage</title>
<path fill="none" stroke="#ebc220" d="M672.07,-136.332C669.607,-127.494 667.22,-117.394 666,-108 663.94,-92.1332 663.94,-87.8668 666,-72 667.133,-63.2774 669.272,-53.9451 671.544,-45.5801"/>
<ellipse fill="none" stroke="#ebc220" cx="673.2" cy="-140.198" rx="4.00001" ry="4.00001"/>
<polygon fill="#ebc220" stroke="#ebc220" points="671.547,-45.5697 678.645,-37.2112 672.934,-40.7661 674.322,-35.9624 674.322,-35.9624 674.322,-35.9624 672.934,-40.7661 669.999,-34.7137 671.547,-45.5697 671.547,-45.5697"/>
</g>
<!-- ProductRequisite -->
<g id="node11" class="node"><title>ProductRequisite</title>
<ellipse fill="none" stroke="black" cx="349" cy="-162" rx="71.2405" ry="18"/>
<text text-anchor="middle" x="349" y="-158.3" font-family="Times,serif" font-size="14.00">ProductRequisite</text>
</g>
<!-- Requisite&#45;&gt;ProductRequisite -->
<g id="edge16" class="edge"><title>Requisite&#45;&gt;ProductRequisite</title>
<path fill="none" stroke="#af4237" d="M571.566,-280.089C573.672,-260.387 572.998,-233.392 558,-216 553.036,-210.243 470.206,-190.449 410.335,-176.752"/>
<ellipse fill="none" stroke="#af4237" cx="571.045" cy="-284.07" rx="4.00001" ry="4.00001"/>
<polygon fill="#af4237" stroke="#af4237" points="410.317,-176.748 401.568,-170.138 405.442,-175.637 400.567,-174.525 400.567,-174.525 400.567,-174.525 405.442,-175.637 399.567,-178.912 410.317,-176.748 410.317,-176.748"/>
</g>
<!-- Requisite&#45;&gt;Product -->
<g id="edge17" class="edge"><title>Requisite&#45;&gt;Product</title>
<path fill="none" stroke="#849f41" d="M609.905,-291.142C613.318,-290.069 616.714,-289.011 620,-288 667.246,-273.47 721.721,-257.545 758.257,-246.983"/>
<polygon fill="#849f41" stroke="#849f41" points="609.856,-291.157 598.964,-289.887 605.09,-292.667 600.323,-294.177 600.323,-294.177 600.323,-294.177 605.09,-292.667 601.682,-298.467 609.856,-291.157 609.856,-291.157"/>
<polygon fill="#849f41" stroke="#849f41" points="758.458,-246.925 769.314,-248.475 763.262,-245.538 768.066,-244.152 768.066,-244.152 768.066,-244.152 763.262,-245.538 766.818,-239.828 758.458,-246.925 758.458,-246.925"/>
</g>
<!-- Requisite&#45;&gt;DocumentRequisite -->
<g id="edge18" class="edge"><title>Requisite&#45;&gt;DocumentRequisite</title>
<path fill="none" stroke="#26c2ba" d="M539.286,-285.404C526.929,-276.667 512.31,-266.33 499.537,-257.299"/>
<ellipse fill="none" stroke="#26c2ba" cx="542.739" cy="-287.845" rx="4.00002" ry="4.00002"/>
<polygon fill="#26c2ba" stroke="#26c2ba" points="499.204,-257.064 493.637,-247.616 495.122,-254.177 491.039,-251.29 491.039,-251.29 491.039,-251.29 495.122,-254.177 488.441,-254.965 499.204,-257.064 499.204,-257.064"/>
</g>
<!-- PriceTypeTaxValue -->
<g id="node13" class="node"><title>PriceTypeTaxValue</title>
<ellipse fill="none" stroke="black" cx="1203" cy="-234" rx="81.3646" ry="18"/>
<text text-anchor="middle" x="1203" y="-230.3" font-family="Times,serif" font-size="14.00">PriceTypeTaxValue</text>
</g>
<!-- Bank -->
<g id="node14" class="node"><title>Bank</title>
<ellipse fill="none" stroke="black" cx="1549" cy="-522" rx="29.3722" ry="18"/>
<text text-anchor="middle" x="1549" y="-518.3" font-family="Times,serif" font-size="14.00">Bank</text>
</g>
<!-- PriceType&#45;&gt;Price -->
<g id="edge21" class="edge"><title>PriceType&#45;&gt;Price</title>
<path fill="none" stroke="#269cb9" d="M1250.43,-365.557C1282.55,-356.639 1325.7,-342.636 1361,-324 1372.75,-317.795 1546.07,-191.893 1552,-180 1559.14,-165.68 1562.48,-156.093 1552,-144 1509.65,-95.1172 1308.11,-90.2879 1222.55,-90.4964"/>
<ellipse fill="none" stroke="#269cb9" cx="1246.37" cy="-366.663" rx="4.00001" ry="4.00001"/>
<polygon fill="#269cb9" stroke="#269cb9" points="1222.47,-90.4967 1212.45,-86.046 1217.47,-90.5213 1212.47,-90.5459 1212.47,-90.5459 1212.47,-90.5459 1217.47,-90.5213 1212.5,-95.0459 1222.47,-90.4967 1222.47,-90.4967"/>
</g>
<!-- PriceType&#45;&gt;PriceTypeTaxValue -->
<g id="edge19" class="edge"><title>PriceType&#45;&gt;PriceTypeTaxValue</title>
<path fill="none" stroke="#8db2d6" d="M1203.82,-351.558C1203.64,-326.444 1203.37,-288.164 1203.19,-262.393"/>
<ellipse fill="none" stroke="#8db2d6" cx="1203.85" cy="-355.872" rx="4" ry="4"/>
<polygon fill="#8db2d6" stroke="#8db2d6" points="1203.19,-262.189 1207.62,-252.158 1203.16,-257.189 1203.12,-252.189 1203.12,-252.189 1203.12,-252.189 1203.16,-257.189 1198.62,-252.221 1203.19,-262.189 1203.19,-262.189"/>
</g>
<!-- PriceType&#45;&gt;Tax -->
<g id="edge20" class="edge"><title>PriceType&#45;&gt;Tax</title>
<path fill="none" stroke="#1dd168" d="M1166.64,-359.33C1141.83,-347.596 1109.67,-332.386 1086.43,-321.391"/>
<polygon fill="#1dd168" stroke="#1dd168" points="1166.77,-359.393 1173.89,-367.737 1171.29,-361.531 1175.81,-363.669 1175.81,-363.669 1175.81,-363.669 1171.29,-361.531 1177.74,-359.601 1166.77,-359.393 1166.77,-359.393"/>
<polygon fill="#1dd168" stroke="#1dd168" points="1086.41,-321.382 1079.29,-313.039 1081.89,-319.245 1077.37,-317.107 1077.37,-317.107 1077.37,-317.107 1081.89,-319.245 1075.44,-321.175 1086.41,-321.382 1086.41,-321.382"/>
</g>
<!-- ProductImage -->
<g id="node16" class="node"><title>ProductImage</title>
<ellipse fill="none" stroke="black" cx="800" cy="-162" rx="60.1672" ry="18"/>
<text text-anchor="middle" x="800" y="-158.3" font-family="Times,serif" font-size="14.00">ProductImage</text>
</g>
<!-- Owner -->
<g id="node17" class="node"><title>Owner</title>
<ellipse fill="none" stroke="black" cx="1331" cy="-687" rx="34.1708" ry="18"/>
<text text-anchor="middle" x="1331" y="-683.3" font-family="Times,serif" font-size="14.00">Owner</text>
</g>
<!-- Owner&#45;&gt;Offer -->
<g id="edge25" class="edge"><title>Owner&#45;&gt;Offer</title>
<path fill="none" stroke="#fcce40" d="M1335.3,-660.864C1338.16,-638.035 1339.81,-603.786 1330,-576 1313.08,-528.061 1265.72,-489.825 1234.4,-468.806"/>
<ellipse fill="none" stroke="#fcce40" cx="1334.71" cy="-665.055" rx="4.00001" ry="4.00001"/>
<polygon fill="#fcce40" stroke="#fcce40" points="1234.01,-468.555 1228.09,-459.323 1229.82,-465.824 1225.63,-463.093 1225.63,-463.093 1225.63,-463.093 1229.82,-465.824 1223.18,-466.862 1234.01,-468.555 1234.01,-468.555"/>
</g>
<!-- Classifier -->
<g id="node19" class="node"><title>Classifier</title>
<ellipse fill="none" stroke="black" cx="1277" cy="-594" rx="44.2946" ry="18"/>
<text text-anchor="middle" x="1277" y="-590.3" font-family="Times,serif" font-size="14.00">Classifier</text>
</g>
<!-- Owner&#45;&gt;Classifier -->
<g id="edge23" class="edge"><title>Owner&#45;&gt;Classifier</title>
<path fill="none" stroke="#976ef3" d="M1316.97,-662.357C1309.36,-649.533 1299.95,-633.671 1292.17,-620.561"/>
<ellipse fill="none" stroke="#976ef3" cx="1319.05" cy="-665.869" rx="4.00002" ry="4.00002"/>
<polygon fill="#976ef3" stroke="#976ef3" points="1291.94,-620.185 1290.71,-609.289 1289.39,-615.885 1286.84,-611.585 1286.84,-611.585 1286.84,-611.585 1289.39,-615.885 1282.97,-613.881 1291.94,-620.185 1291.94,-620.185"/>
</g>
<!-- Catalog -->
<g id="node23" class="node"><title>Catalog</title>
<ellipse fill="none" stroke="black" cx="1205" cy="-522" rx="38.0212" ry="18"/>
<text text-anchor="middle" x="1205" y="-518.3" font-family="Times,serif" font-size="14.00">Catalog</text>
</g>
<!-- Owner&#45;&gt;Catalog -->
<g id="edge22" class="edge"><title>Owner&#45;&gt;Catalog</title>
<path fill="none" stroke="#fe743d" d="M1297.89,-671.464C1273.68,-659.119 1242.05,-639.079 1224,-612 1211.78,-593.673 1207.24,-568.912 1205.63,-550.16"/>
<ellipse fill="none" stroke="#fe743d" cx="1301.55" cy="-673.276" rx="4.00002" ry="4.00002"/>
<polygon fill="#fe743d" stroke="#fe743d" points="1205.63,-550.155 1209.49,-539.891 1205.31,-545.164 1205,-540.174 1205,-540.174 1205,-540.174 1205.31,-545.164 1200.51,-540.458 1205.63,-550.155 1205.63,-550.155"/>
</g>
<!-- PaymentAccount -->
<g id="node33" class="node"><title>PaymentAccount</title>
<ellipse fill="none" stroke="black" cx="1499" cy="-594" rx="71.2405" ry="18"/>
<text text-anchor="middle" x="1499" y="-590.3" font-family="Times,serif" font-size="14.00">PaymentAccount</text>
</g>
<!-- Owner&#45;&gt;PaymentAccount -->
<g id="edge24" class="edge"><title>Owner&#45;&gt;PaymentAccount</title>
<path fill="none" stroke="#b50408" d="M1352.37,-665.226C1359.25,-659.192 1367.13,-652.911 1375,-648 1397.95,-633.67 1425.45,-621.476 1448.72,-612.411"/>
<ellipse fill="none" stroke="#b50408" cx="1349.33" cy="-667.971" rx="4.00002" ry="4.00002"/>
<polygon fill="#b50408" stroke="#b50408" points="1448.73,-612.408 1459.68,-613.049 1453.4,-610.626 1458.07,-608.844 1458.07,-608.844 1458.07,-608.844 1453.4,-610.626 1456.47,-604.64 1448.73,-612.408 1448.73,-612.408"/>
</g>
<!-- ProductTaxValue -->
<g id="node18" class="node"><title>ProductTaxValue</title>
<ellipse fill="none" stroke="black" cx="1100" cy="-162" rx="72.192" ry="18"/>
<text text-anchor="middle" x="1100" y="-158.3" font-family="Times,serif" font-size="14.00">ProductTaxValue</text>
</g>
<!-- Classifier&#45;&gt;Offer -->
<g id="edge29" class="edge"><title>Classifier&#45;&gt;Offer</title>
<path fill="none" stroke="#6abe6b" d="M1273.06,-567.758C1269.44,-549.277 1262.94,-524.035 1252,-504 1245.8,-492.645 1236.76,-481.674 1228.26,-472.687"/>
<ellipse fill="none" stroke="#6abe6b" cx="1273.8" cy="-571.796" rx="4.00001" ry="4.00001"/>
<polygon fill="#6abe6b" stroke="#6abe6b" points="1228.04,-472.461 1224.22,-462.182 1224.53,-468.901 1221.02,-465.342 1221.02,-465.342 1221.02,-465.342 1224.53,-468.901 1217.81,-468.502 1228.04,-472.461 1228.04,-472.461"/>
</g>
<!-- Classifier&#45;&gt;Catalog -->
<g id="edge28" class="edge"><title>Classifier&#45;&gt;Catalog</title>
<path fill="none" stroke="#20fe9a" d="M1254.87,-571.487C1246.57,-563.416 1237.11,-554.214 1228.67,-546.012"/>
<ellipse fill="none" stroke="#20fe9a" cx="1257.79" cy="-574.328" rx="4.00002" ry="4.00002"/>
<polygon fill="#20fe9a" stroke="#20fe9a" points="1228.44,-545.792 1224.41,-535.595 1224.86,-542.307 1221.27,-538.821 1221.27,-538.821 1221.27,-538.821 1224.86,-542.307 1218.14,-542.048 1228.44,-545.792 1228.44,-545.792"/>
</g>
<!-- Property -->
<g id="node31" class="node"><title>Property</title>
<ellipse fill="none" stroke="black" cx="1312" cy="-306" rx="40.4202" ry="18"/>
<text text-anchor="middle" x="1312" y="-302.3" font-family="Times,serif" font-size="14.00">Property</text>
</g>
<!-- Classifier&#45;&gt;Property -->
<g id="edge27" class="edge"><title>Classifier&#45;&gt;Property</title>
<path fill="none" stroke="#a7e4ea" d="M1280.08,-567.847C1286.62,-514.388 1301.86,-389.835 1308.64,-334.425"/>
<ellipse fill="none" stroke="#a7e4ea" cx="1279.57" cy="-571.996" rx="4.00001" ry="4.00001"/>
<polygon fill="#a7e4ea" stroke="#a7e4ea" points="1308.67,-334.232 1314.35,-324.853 1309.27,-329.269 1309.88,-324.306 1309.88,-324.306 1309.88,-324.306 1309.27,-329.269 1305.42,-323.76 1308.67,-334.232 1308.67,-334.232"/>
</g>
<!-- Group -->
<g id="node39" class="node"><title>Group</title>
<ellipse fill="none" stroke="black" cx="1492" cy="-162" rx="33.2209" ry="18"/>
<text text-anchor="middle" x="1492" y="-158.3" font-family="Times,serif" font-size="14.00">Group</text>
</g>
<!-- Classifier&#45;&gt;Group -->
<g id="edge26" class="edge"><title>Classifier&#45;&gt;Group</title>
<path fill="none" stroke="#b032f8" d="M1324.32,-583.758C1387.62,-568.329 1492,-530.79 1492,-451 1492,-451 1492,-451 1492,-305 1492,-264.996 1492,-218.653 1492,-190.08"/>
<ellipse fill="none" stroke="#b032f8" cx="1320.33" cy="-584.699" rx="4.00001" ry="4.00001"/>
<polygon fill="#b032f8" stroke="#b032f8" points="1492,-190.049 1496.5,-180.049 1492,-185.049 1492,-180.049 1492,-180.049 1492,-180.049 1492,-185.049 1487.5,-180.049 1492,-190.049 1492,-190.049"/>
</g>
<!-- Representative&#45;&gt;Contact -->
<g id="edge30" class="edge"><title>Representative&#45;&gt;Contact</title>
<path fill="none" stroke="#273f86" d="M1605.85,-210.787C1614.12,-202.744 1623.47,-193.657 1631.77,-185.582"/>
<ellipse fill="none" stroke="#273f86" cx="1602.93" cy="-213.623" rx="4.00002" ry="4.00002"/>
<polygon fill="#273f86" stroke="#273f86" points="1631.88,-185.482 1642.18,-181.737 1635.46,-181.996 1639.05,-178.511 1639.05,-178.511 1639.05,-178.511 1635.46,-181.996 1635.91,-175.284 1631.88,-185.482 1631.88,-185.482"/>
</g>
<!-- ApplicationRecord -->
<g id="node21" class="node"><title>ApplicationRecord</title>
<ellipse fill="none" stroke="black" cx="1642" cy="-687" rx="77.0154" ry="18"/>
<text text-anchor="middle" x="1642" y="-683.3" font-family="Times,serif" font-size="14.00">ApplicationRecord</text>
</g>
<!-- Storage&#45;&gt;ProposalsStorage -->
<g id="edge31" class="edge"><title>Storage&#45;&gt;ProposalsStorage</title>
<path fill="none" stroke="#86d2b1" d="M701.472,-64.5475C698.588,-58.4284 695.479,-51.8347 692.548,-45.6163"/>
<ellipse fill="none" stroke="#86d2b1" cx="703.306" cy="-68.4368" rx="4.00002" ry="4.00002"/>
<polygon fill="#86d2b1" stroke="#86d2b1" points="692.408,-45.3206 692.214,-34.3564 690.276,-40.7979 688.144,-36.2753 688.144,-36.2753 688.144,-36.2753 690.276,-40.7979 684.074,-38.1942 692.408,-45.3206 692.408,-45.3206"/>
</g>
<!-- Catalog&#45;&gt;Offer -->
<g id="edge33" class="edge"><title>Catalog&#45;&gt;Offer</title>
<path fill="none" stroke="#20fb8e" d="M1205,-495.64C1205,-490.063 1205,-484.132 1205,-478.476"/>
<ellipse fill="none" stroke="#20fb8e" cx="1205" cy="-499.697" rx="4" ry="4"/>
<polygon fill="#20fb8e" stroke="#20fb8e" points="1205,-478.104 1209.5,-468.104 1205,-473.104 1205,-468.104 1205,-468.104 1205,-468.104 1205,-473.104 1200.5,-468.104 1205,-478.104 1205,-478.104"/>
</g>
<!-- Catalog&#45;&gt;Product -->
<g id="edge32" class="edge"><title>Catalog&#45;&gt;Product</title>
<path fill="none" stroke="#875f95" d="M1179.76,-501.213C1126.8,-459.974 999.727,-362.479 888,-288 869.97,-275.981 849.232,-263.432 832.418,-253.564"/>
<ellipse fill="none" stroke="#875f95" cx="1182.99" cy="-503.73" rx="4.00002" ry="4.00002"/>
<polygon fill="#875f95" stroke="#875f95" points="832.161,-253.414 825.789,-244.49 827.842,-250.896 823.522,-248.377 823.522,-248.377 823.522,-248.377 827.842,-250.896 821.256,-252.265 832.161,-253.414 832.161,-253.414"/>
</g>
<!-- OrderTaxValue -->
<g id="node24" class="node"><title>OrderTaxValue</title>
<ellipse fill="none" stroke="black" cx="944" cy="-162" rx="65.4659" ry="18"/>
<text text-anchor="middle" x="944" y="-158.3" font-family="Times,serif" font-size="14.00">OrderTaxValue</text>
</g>
<!-- Magento2Order -->
<g id="node26" class="node"><title>Magento2Order</title>
<ellipse fill="none" stroke="black" cx="1805" cy="-687" rx="67.3907" ry="18"/>
<text text-anchor="middle" x="1805" y="-683.3" font-family="Times,serif" font-size="14.00">Magento2Order</text>
</g>
<!-- LegalEntity -->
<g id="node27" class="node"><title>LegalEntity</title>
<ellipse fill="none" stroke="black" cx="1577" cy="-378" rx="51.4931" ry="18"/>
<text text-anchor="middle" x="1577" y="-374.3" font-family="Times,serif" font-size="14.00">LegalEntity</text>
</g>
<!-- LegalEntity&#45;&gt;Contractor -->
<g id="edge34" class="edge"><title>LegalEntity&#45;&gt;Contractor</title>
<path fill="none" stroke="#3f63f2" d="M1579.17,-351.64C1579.65,-346.063 1580.16,-340.132 1580.64,-334.476"/>
<ellipse fill="none" stroke="#3f63f2" cx="1578.82" cy="-355.711" rx="4" ry="4"/>
<polygon fill="#3f63f2" stroke="#3f63f2" points="1580.68,-334.068 1586.02,-324.489 1581.11,-329.086 1581.53,-324.104 1581.53,-324.104 1581.53,-324.104 1581.11,-329.086 1577.05,-323.72 1580.68,-334.068 1580.68,-334.068"/>
</g>
<!-- Tax&#45;&gt;PriceTypeTaxValue -->
<g id="edge37" class="edge"><title>Tax&#45;&gt;PriceTypeTaxValue</title>
<path fill="none" stroke="#a3d06e" d="M1084.65,-291.359C1106.48,-280.961 1136.87,-266.49 1161.39,-254.815"/>
<ellipse fill="none" stroke="#a3d06e" cx="1080.99" cy="-293.102" rx="4.00002" ry="4.00002"/>
<polygon fill="#a3d06e" stroke="#a3d06e" points="1161.44,-254.792 1172.4,-254.555 1165.95,-252.642 1170.47,-250.492 1170.47,-250.492 1170.47,-250.492 1165.95,-252.642 1168.53,-246.429 1161.44,-254.792 1161.44,-254.792"/>
</g>
<!-- Tax&#45;&gt;ProductTaxValue -->
<g id="edge35" class="edge"><title>Tax&#45;&gt;ProductTaxValue</title>
<path fill="none" stroke="#76f513" d="M1063.67,-280.233C1071.5,-254.964 1083.62,-215.872 1091.67,-189.869"/>
<ellipse fill="none" stroke="#76f513" cx="1062.4" cy="-284.332" rx="4.00001" ry="4.00001"/>
<polygon fill="#76f513" stroke="#76f513" points="1091.69,-189.82 1098.95,-181.6 1093.17,-185.044 1094.65,-180.268 1094.65,-180.268 1094.65,-180.268 1093.17,-185.044 1090.35,-178.936 1091.69,-189.82 1091.69,-189.82"/>
</g>
<!-- Tax&#45;&gt;OrderTaxValue -->
<g id="edge39" class="edge"><title>Tax&#45;&gt;OrderTaxValue</title>
<path fill="none" stroke="#75047b" d="M1055.67,-279.93C1054.25,-260.759 1049.66,-234.553 1036,-216 1024.95,-200.985 1008.27,-189.561 992.129,-181.235"/>
<ellipse fill="none" stroke="#75047b" cx="1055.89" cy="-283.937" rx="4" ry="4"/>
<polygon fill="#75047b" stroke="#75047b" points="991.738,-181.046 984.7,-172.637 987.238,-178.866 982.738,-176.687 982.738,-176.687 982.738,-176.687 987.238,-178.866 980.777,-180.737 991.738,-181.046 991.738,-181.046"/>
</g>
<!-- Tax&#45;&gt;Product -->
<g id="edge36" class="edge"><title>Tax&#45;&gt;Product</title>
<path fill="none" stroke="#0d913f" d="M1020.73,-297.176C978.939,-287.65 907.373,-270.524 847,-252 844.107,-251.112 841.13,-250.151 838.145,-249.153"/>
<polygon fill="#0d913f" stroke="#0d913f" points="1020.93,-297.222 1029.69,-303.82 1025.81,-298.327 1030.68,-299.431 1030.68,-299.431 1030.68,-299.431 1025.81,-298.327 1031.68,-295.042 1020.93,-297.222 1020.93,-297.222"/>
<polygon fill="#0d913f" stroke="#0d913f" points="838.133,-249.148 830.151,-241.629 833.407,-247.515 828.681,-245.882 828.681,-245.882 828.681,-245.882 833.407,-247.515 827.212,-250.135 838.133,-249.148 838.133,-249.148"/>
</g>
<!-- Tax&#45;&gt;DocumentsTaxValue -->
<g id="edge38" class="edge"><title>Tax&#45;&gt;DocumentsTaxValue</title>
<path fill="none" stroke="#a012c6" d="M1029.67,-288.833C1013.98,-279.195 993.859,-266.843 976.856,-256.403"/>
<ellipse fill="none" stroke="#a012c6" cx="1033.25" cy="-291.032" rx="4.00002" ry="4.00002"/>
<polygon fill="#a012c6" stroke="#a012c6" points="976.81,-256.374 970.643,-247.307 972.549,-253.758 968.288,-251.142 968.288,-251.142 968.288,-251.142 972.549,-253.758 965.933,-254.977 976.81,-256.374 976.81,-256.374"/>
</g>
<!-- ProductAttribute -->
<g id="node29" class="node"><title>ProductAttribute</title>
<ellipse fill="none" stroke="black" cx="699" cy="-306" rx="69.3156" ry="18"/>
<text text-anchor="middle" x="699" y="-302.3" font-family="Times,serif" font-size="14.00">ProductAttribute</text>
</g>
<!-- ProductAttribute&#45;&gt;Product -->
<g id="edge41" class="edge"><title>ProductAttribute&#45;&gt;Product</title>
<path fill="none" stroke="#a87b75" d="M730.649,-283.065C743.555,-274.12 758.38,-263.846 771.001,-255.098"/>
<polygon fill="#a87b75" stroke="#a87b75" points="730.39,-283.244 719.608,-285.242 726.281,-286.092 722.171,-288.941 722.171,-288.941 722.171,-288.941 726.281,-286.092 724.735,-292.639 730.39,-283.244 730.39,-283.244"/>
<polygon fill="#a87b75" stroke="#a87b75" points="771.117,-255.018 781.9,-253.02 775.227,-252.169 779.336,-249.321 779.336,-249.321 779.336,-249.321 775.227,-252.169 776.773,-245.623 771.117,-255.018 771.117,-255.018"/>
</g>
<!-- ProductAttributeValue -->
<g id="node43" class="node"><title>ProductAttributeValue</title>
<ellipse fill="none" stroke="black" cx="529" cy="-162" rx="90.4879" ry="18"/>
<text text-anchor="middle" x="529" y="-158.3" font-family="Times,serif" font-size="14.00">ProductAttributeValue</text>
</g>
<!-- ProductAttribute&#45;&gt;ProductAttributeValue -->
<g id="edge40" class="edge"><title>ProductAttribute&#45;&gt;ProductAttributeValue</title>
<path fill="none" stroke="#4d663c" d="M673.035,-283.311C641.629,-257.078 588.98,-213.101 556.781,-186.206"/>
<ellipse fill="none" stroke="#4d663c" cx="676.429" cy="-286.146" rx="4.00002" ry="4.00002"/>
<polygon fill="#4d663c" stroke="#4d663c" points="556.736,-186.168 551.946,-176.303 552.899,-182.962 549.061,-179.757 549.061,-179.757 549.061,-179.757 552.899,-182.962 546.176,-183.211 556.736,-186.168 556.736,-186.168"/>
</g>
<!-- Magento2CatalogProduct -->
<g id="node30" class="node"><title>Magento2CatalogProduct</title>
<ellipse fill="none" stroke="black" cx="1992" cy="-687" rx="101.087" ry="18"/>
<text text-anchor="middle" x="1992" y="-683.3" font-family="Times,serif" font-size="14.00">Magento2CatalogProduct</text>
</g>
<!-- Property&#45;&gt;ProductProperty -->
<g id="edge43" class="edge"><title>Property&#45;&gt;ProductProperty</title>
<path fill="none" stroke="#d9cb9d" d="M1309.02,-279.37C1306.32,-261.183 1301.42,-236.467 1293,-216 1289.05,-206.396 1283.35,-196.621 1277.74,-188.125"/>
<ellipse fill="none" stroke="#d9cb9d" cx="1309.63" cy="-283.764" rx="4.00001" ry="4.00001"/>
<polygon fill="#d9cb9d" stroke="#d9cb9d" points="1277.68,-188.033 1275.71,-177.244 1274.84,-183.914 1272.01,-179.795 1272.01,-179.795 1272.01,-179.795 1274.84,-183.914 1268.3,-182.346 1277.68,-188.033 1277.68,-188.033"/>
</g>
<!-- Property&#45;&gt;Product -->
<g id="edge44" class="edge"><title>Property&#45;&gt;Product</title>
<path fill="none" stroke="#d0d26a" d="M1262.44,-300.827C1159.39,-291.908 925.106,-270.311 847,-252 843.972,-251.29 840.87,-250.446 837.775,-249.518"/>
<polygon fill="#d0d26a" stroke="#d0d26a" points="1262.62,-300.842 1272.19,-306.183 1267.6,-301.271 1272.58,-301.7 1272.58,-301.7 1272.58,-301.7 1267.6,-301.271 1272.97,-297.217 1262.62,-300.842 1262.62,-300.842"/>
<polygon fill="#d0d26a" stroke="#d0d26a" points="837.518,-249.435 829.403,-242.059 832.764,-247.886 828.01,-246.338 828.01,-246.338 828.01,-246.338 832.764,-247.886 826.616,-250.616 837.518,-249.435 837.518,-249.435"/>
</g>
<!-- Handbook -->
<g id="node40" class="node"><title>Handbook</title>
<ellipse fill="none" stroke="black" cx="1393" cy="-162" rx="47.169" ry="18"/>
<text text-anchor="middle" x="1393" y="-158.3" font-family="Times,serif" font-size="14.00">Handbook</text>
</g>
<!-- Property&#45;&gt;Handbook -->
<g id="edge42" class="edge"><title>Property&#45;&gt;Handbook</title>
<path fill="none" stroke="#79c6dd" d="M1325.56,-281.226C1340.13,-255.691 1363.2,-215.243 1378.22,-188.911"/>
<ellipse fill="none" stroke="#79c6dd" cx="1323.43" cy="-284.958" rx="4.00002" ry="4.00002"/>
<polygon fill="#79c6dd" stroke="#79c6dd" points="1378.4,-188.588 1387.27,-182.131 1380.88,-184.245 1383.36,-179.902 1383.36,-179.902 1383.36,-179.902 1380.88,-184.245 1379.45,-177.672 1378.4,-188.588 1378.4,-188.588"/>
</g>
<!-- PaymentAccount&#45;&gt;Bank -->
<g id="edge45" class="edge"><title>PaymentAccount&#45;&gt;Bank</title>
<path fill="none" stroke="#10264f" d="M1515.88,-569.363C1520.94,-562.29 1526.48,-554.523 1531.57,-547.403"/>
<ellipse fill="none" stroke="#10264f" cx="1513.43" cy="-572.8" rx="4.00002" ry="4.00002"/>
<polygon fill="#10264f" stroke="#10264f" points="1531.88,-546.967 1541.36,-541.445 1534.79,-542.898 1537.69,-538.829 1537.69,-538.829 1537.69,-538.829 1534.79,-542.898 1534.03,-536.214 1531.88,-546.967 1531.88,-546.967"/>
</g>
<!-- IdentityCard -->
<g id="node34" class="node"><title>IdentityCard</title>
<ellipse fill="none" stroke="black" cx="1715" cy="-306" rx="55.3682" ry="18"/>
<text text-anchor="middle" x="1715" y="-302.3" font-family="Times,serif" font-size="14.00">IdentityCard</text>
</g>
<!-- Product&#45;&gt;ProductProperty -->
<g id="edge47" class="edge"><title>Product&#45;&gt;ProductProperty</title>
<path fill="none" stroke="#12cdac" d="M835.675,-219.098C839.462,-217.924 843.285,-216.859 847,-216 992.467,-182.367 1033.63,-203.932 1181,-180 1187.1,-179.009 1193.45,-177.846 1199.77,-176.603"/>
<ellipse fill="none" stroke="#12cdac" cx="831.801" cy="-220.378" rx="4.00001" ry="4.00001"/>
<polygon fill="#12cdac" stroke="#12cdac" points="1199.84,-176.589 1210.53,-179.004 1204.74,-175.592 1209.64,-174.595 1209.64,-174.595 1209.64,-174.595 1204.74,-175.592 1208.74,-170.185 1199.84,-176.589 1199.84,-176.589"/>
</g>
<!-- Product&#45;&gt;DocumentsProduct -->
<g id="edge54" class="edge"><title>Product&#45;&gt;DocumentsProduct</title>
<path fill="none" stroke="#18040e" d="M753.885,-229.793C627.933,-220.929 279.911,-195.718 166,-180 158.712,-178.994 151.114,-177.78 143.57,-176.469"/>
<ellipse fill="none" stroke="#18040e" cx="758.22" cy="-230.097" rx="4" ry="4"/>
<polygon fill="#18040e" stroke="#18040e" points="143.556,-176.467 134.509,-170.27 138.634,-175.583 133.713,-174.699 133.713,-174.699 133.713,-174.699 138.634,-175.583 132.918,-179.128 143.556,-176.467 143.556,-176.467"/>
</g>
<!-- Product&#45;&gt;Proposal -->
<g id="edge51" class="edge"><title>Product&#45;&gt;Proposal</title>
<path fill="none" stroke="#35409a" d="M769.921,-215.454C751.891,-204.936 729.016,-191.593 710.85,-180.996"/>
<ellipse fill="none" stroke="#35409a" cx="773.408" cy="-217.488" rx="4.00002" ry="4.00002"/>
<ellipse fill="#35409a" stroke="#35409a" cx="707.343" cy="-178.95" rx="4.00002" ry="4.00002"/>
</g>
<!-- Product&#45;&gt;ProductRequisite -->
<g id="edge49" class="edge"><title>Product&#45;&gt;ProductRequisite</title>
<path fill="none" stroke="#cc9f47" d="M755.368,-227.613C685.531,-218.96 546.272,-200.812 429,-180 422.945,-178.925 416.648,-177.728 410.366,-176.479"/>
<ellipse fill="none" stroke="#cc9f47" cx="759.564" cy="-228.13" rx="4.00001" ry="4.00001"/>
<polygon fill="#cc9f47" stroke="#cc9f47" points="410.342,-176.475 401.436,-170.077 405.442,-175.481 400.541,-174.487 400.541,-174.487 400.541,-174.487 405.442,-175.481 399.647,-178.897 410.342,-176.475 410.342,-176.475"/>
</g>
<!-- Product&#45;&gt;ProductImage -->
<g id="edge52" class="edge"><title>Product&#45;&gt;ProductImage</title>
<path fill="none" stroke="#049370" d="M800,-207.64C800,-202.063 800,-196.132 800,-190.476"/>
<ellipse fill="none" stroke="#049370" cx="800" cy="-211.697" rx="4" ry="4"/>
<polygon fill="#049370" stroke="#049370" points="800,-190.104 804.5,-180.104 800,-185.104 800,-180.104 800,-180.104 800,-180.104 800,-185.104 795.5,-180.104 800,-190.104 800,-190.104"/>
</g>
<!-- Product&#45;&gt;ProductTaxValue -->
<g id="edge48" class="edge"><title>Product&#45;&gt;ProductTaxValue</title>
<path fill="none" stroke="#fb4075" d="M836.367,-219.279C839.939,-218.102 843.526,-216.987 847,-216 851.613,-214.69 962.894,-191.493 1036.32,-176.226"/>
<ellipse fill="none" stroke="#fb4075" cx="832.409" cy="-220.631" rx="4.00001" ry="4.00001"/>
<polygon fill="#fb4075" stroke="#fb4075" points="1036.62,-176.163 1047.33,-178.534 1041.52,-175.146 1046.41,-174.128 1046.41,-174.128 1046.41,-174.128 1041.52,-175.146 1045.5,-169.722 1036.62,-176.163 1036.62,-176.163"/>
</g>
<!-- Product&#45;&gt;OrderTaxValue -->
<g id="edge55" class="edge"><title>Product&#45;&gt;OrderTaxValue</title>
<path fill="none" stroke="#18d753" d="M832.946,-216.984C854.065,-206.718 881.613,-193.327 903.987,-182.451"/>
<ellipse fill="none" stroke="#18d753" cx="829.342" cy="-218.737" rx="4.00002" ry="4.00002"/>
<polygon fill="#18d753" stroke="#18d753" points="904.232,-182.332 915.193,-182.007 908.729,-180.146 913.226,-177.96 913.226,-177.96 913.226,-177.96 908.729,-180.146 911.258,-173.913 904.232,-182.332 904.232,-182.332"/>
</g>
<!-- Product&#45;&gt;Discount -->
<g id="edge56" class="edge"><title>Product&#45;&gt;Discount</title>
<path fill="none" stroke="#10a201" d="M754.452,-229.728C643.471,-221.551 361.421,-199.479 269,-180 265.346,-179.23 261.589,-178.295 257.845,-177.265"/>
<ellipse fill="none" stroke="#10a201" cx="758.467" cy="-230.023" rx="4" ry="4"/>
<polygon fill="#10a201" stroke="#10a201" points="257.637,-177.204 249.328,-170.047 252.843,-175.783 248.049,-174.362 248.049,-174.362 248.049,-174.362 252.843,-175.783 246.77,-178.676 257.637,-177.204 257.637,-177.204"/>
</g>
<!-- Product&#45;&gt;Group -->
<g id="edge46" class="edge"><title>Product&#45;&gt;Group</title>
<path fill="none" stroke="#933389" d="M837.305,-218.424C840.551,-217.487 843.813,-216.657 847,-216 1109.51,-161.858 1187.32,-237.998 1449,-180 1451.87,-179.365 1454.79,-178.564 1457.7,-177.659"/>
<polygon fill="#933389" stroke="#933389" points="837.228,-218.448 826.333,-217.208 832.466,-219.971 827.703,-221.494 827.703,-221.494 827.703,-221.494 832.466,-219.971 829.074,-225.78 837.228,-218.448 837.228,-218.448"/>
<polygon fill="#933389" stroke="#933389" points="1457.97,-177.563 1468.9,-178.51 1462.69,-175.913 1467.41,-174.262 1467.41,-174.262 1467.41,-174.262 1462.69,-175.913 1465.92,-170.014 1457.97,-177.563 1457.97,-177.563"/>
</g>
<!-- Product&#45;&gt;Handbook -->
<g id="edge53" class="edge"><title>Product&#45;&gt;Handbook</title>
<path fill="none" stroke="#7470c1" d="M837.745,-218.347C840.847,-217.45 843.958,-216.649 847,-216 1060.12,-170.514 1121.66,-219.372 1336,-180 1340.23,-179.223 1344.59,-178.25 1348.92,-177.164"/>
<polygon fill="#7470c1" stroke="#7470c1" points="837.492,-218.428 826.597,-217.186 832.73,-219.95 827.967,-221.472 827.967,-221.472 827.967,-221.472 832.73,-219.95 829.337,-225.759 837.492,-218.428 837.492,-218.428"/>
<polygon fill="#7470c1" stroke="#7470c1" points="1349.28,-177.069 1360.1,-178.811 1354.1,-175.768 1358.93,-174.466 1358.93,-174.466 1358.93,-174.466 1354.1,-175.768 1357.76,-170.122 1349.28,-177.069 1349.28,-177.069"/>
</g>
<!-- Product&#45;&gt;ProductAttributeValue -->
<g id="edge50" class="edge"><title>Product&#45;&gt;ProductAttributeValue</title>
<path fill="none" stroke="#90af4c" d="M759.425,-222.519C714.993,-211.042 643.196,-192.497 591.548,-179.156"/>
<ellipse fill="none" stroke="#90af4c" cx="763.438" cy="-223.556" rx="4.00001" ry="4.00001"/>
<polygon fill="#90af4c" stroke="#90af4c" points="591.508,-179.146 582.951,-172.288 586.667,-177.896 581.826,-176.645 581.826,-176.645 581.826,-176.645 586.667,-177.896 580.7,-181.002 591.508,-179.146 591.508,-179.146"/>
</g>
<!-- PhysicalPersone -->
<g id="node36" class="node"><title>PhysicalPersone</title>
<ellipse fill="none" stroke="black" cx="1715" cy="-378" rx="68.3664" ry="18"/>
<text text-anchor="middle" x="1715" y="-374.3" font-family="Times,serif" font-size="14.00">PhysicalPersone</text>
</g>
<!-- PhysicalPersone&#45;&gt;Contractor -->
<g id="edge57" class="edge"><title>PhysicalPersone&#45;&gt;Contractor</title>
<path fill="none" stroke="#e5d104" d="M1678.84,-357.827C1660.13,-347.903 1637.36,-335.829 1618.72,-325.94"/>
<ellipse fill="none" stroke="#e5d104" cx="1682.5" cy="-359.764" rx="4.00002" ry="4.00002"/>
<polygon fill="#e5d104" stroke="#e5d104" points="1618.49,-325.82 1611.76,-317.16 1614.07,-323.478 1609.66,-321.135 1609.66,-321.135 1609.66,-321.135 1614.07,-323.478 1607.55,-325.111 1618.49,-325.82 1618.49,-325.82"/>
</g>
<!-- PhysicalPersone&#45;&gt;IdentityCard -->
<g id="edge58" class="edge"><title>PhysicalPersone&#45;&gt;IdentityCard</title>
<path fill="none" stroke="#818601" d="M1715,-351.64C1715,-345.348 1715,-338.605 1715,-332.316"/>
<ellipse fill="none" stroke="#818601" cx="1715" cy="-355.697" rx="4" ry="4"/>
<ellipse fill="#818601" stroke="#818601" cx="1715" cy="-328.104" rx="4" ry="4"/>
</g>
<!-- Group&#45;&gt;Group -->
<g id="edge59" class="edge"><title>Group&#45;&gt;Group</title>
<path fill="none" stroke="#a43ab9" d="M1523.69,-175.5C1534.4,-175.553 1543,-171.053 1543,-162 1543,-153.562 1535.53,-149.08 1525.84,-148.553"/>
<ellipse fill="none" stroke="#a43ab9" cx="1519.59" cy="-175.071" rx="4" ry="4"/>
<polygon fill="#a43ab9" stroke="#a43ab9" points="1525.58,-148.573 1515.26,-144.857 1520.59,-148.958 1515.61,-149.344 1515.61,-149.344 1515.61,-149.344 1520.59,-148.958 1515.95,-153.83 1525.58,-148.573 1525.58,-148.573"/>
</g>
<!-- CommerceInformation -->
<g id="node41" class="node"><title>CommerceInformation</title>
<ellipse fill="none" stroke="black" cx="1148" cy="-687" rx="92.413" ry="18"/>
<text text-anchor="middle" x="1148" y="-683.3" font-family="Times,serif" font-size="14.00">CommerceInformation</text>
</g>
<!-- CommerceInformation&#45;&gt;Offer -->
<g id="edge62" class="edge"><title>CommerceInformation&#45;&gt;Offer</title>
<path fill="none" stroke="#7706f7" d="M1144.33,-660.811C1140.16,-624.601 1136.44,-556.428 1158,-504 1162.97,-491.915 1171.91,-480.732 1180.67,-471.784"/>
<ellipse fill="none" stroke="#7706f7" cx="1144.84" cy="-664.91" rx="4.00001" ry="4.00001"/>
<polygon fill="#7706f7" stroke="#7706f7" points="1180.69,-471.761 1191.02,-468.063 1184.29,-468.292 1187.89,-464.822 1187.89,-464.822 1187.89,-464.822 1184.29,-468.292 1184.77,-461.582 1180.69,-471.761 1180.69,-471.761"/>
</g>
<!-- CommerceInformation&#45;&gt;Document -->
<g id="edge63" class="edge"><title>CommerceInformation&#45;&gt;Document</title>
<path fill="none" stroke="#7c6002" d="M1121.72,-664.126C1075.14,-625.232 975.262,-541.241 893,-468 868.235,-445.951 840.517,-420.126 821.255,-401.991"/>
<ellipse fill="none" stroke="#7c6002" cx="1124.86" cy="-666.747" rx="4.00002" ry="4.00002"/>
<polygon fill="#7c6002" stroke="#7c6002" points="821.079,-401.826 816.893,-391.69 817.442,-398.395 813.805,-394.964 813.805,-394.964 813.805,-394.964 817.442,-398.395 810.717,-398.237 821.079,-401.826 821.079,-401.826"/>
</g>
<!-- CommerceInformation&#45;&gt;Classifier -->
<g id="edge60" class="edge"><title>CommerceInformation&#45;&gt;Classifier</title>
<path fill="none" stroke="#738efd" d="M1178.16,-664.727C1199.06,-649.98 1226.76,-630.44 1247.52,-615.797"/>
<ellipse fill="none" stroke="#738efd" cx="1174.63" cy="-667.215" rx="4.00002" ry="4.00002"/>
<polygon fill="#738efd" stroke="#738efd" points="1247.78,-615.615 1258.54,-613.527 1251.86,-612.732 1255.95,-609.85 1255.95,-609.85 1255.95,-609.85 1251.86,-612.732 1253.35,-606.173 1247.78,-615.615 1247.78,-615.615"/>
</g>
<!-- CommerceInformation&#45;&gt;Catalog -->
<g id="edge61" class="edge"><title>CommerceInformation&#45;&gt;Catalog</title>
<path fill="none" stroke="#55e06a" d="M1156.78,-660.901C1167.33,-630.734 1184.95,-580.336 1195.72,-549.541"/>
<ellipse fill="none" stroke="#55e06a" cx="1155.31" cy="-665.088" rx="4.00001" ry="4.00001"/>
<polygon fill="#55e06a" stroke="#55e06a" points="1195.79,-549.346 1203.34,-541.392 1197.44,-544.626 1199.09,-539.906 1199.09,-539.906 1199.09,-539.906 1197.44,-544.626 1194.84,-538.421 1195.79,-549.346 1195.79,-549.346"/>
</g>
</g>
</svg>
